<mxfile host="app.diagrams.net" modified="2023-01-31T20:50:28.798Z" agent="5.0 (Windows NT 10.0; Win64; x64) AppleWebKit/537.36 (KHTML, like Gecko) Chrome/109.0.0.0 Safari/537.36 Edg/109.0.1518.70" etag="8-ivtZNpVasuyLYJRZf-" version="20.8.13" type="github">
  <diagram name="PÃ¡gina-1" id="W01HY7S1i-WApw63HTxu">
    <mxGraphModel dx="1434" dy="764" grid="1" gridSize="10" guides="1" tooltips="1" connect="1" arrows="1" fold="1" page="1" pageScale="1" pageWidth="800" pageHeight="800" math="0" shadow="0">
      <root>
        <mxCell id="0" />
        <mxCell id="1" parent="0" />
      </root>
    </mxGraphModel>
  </diagram>
</mxfile>
